<?xml version="1.0" standalone="no"?>
<!DOCTYPE svg PUBLIC "-//W3C//DTD SVG 20010904//EN"
 "http://www.w3.org/TR/2001/REC-SVG-20010904/DTD/svg10.dtd">
<svg version="1.0" xmlns="http://www.w3.org/2000/svg"
 width="512.000000pt" height="512.000000pt" viewBox="0 0 512.000000 512.000000"
 preserveAspectRatio="xMidYMid meet">
<metadata>
Created by potrace 1.14, written by Peter Selinger 2001-2017
</metadata>
<g transform="translate(0.000000,512.000000) scale(0.100000,-0.100000)"
fill="#000000" stroke="none">
<path d="M220 5103 c-19 -10 -43 -34 -55 -53 -20 -35 -20 -41 -21 -2321 0
-1257 -4 -2291 -8 -2297 -4 -7 -15 -12 -24 -12 -30 0 -78 -37 -95 -73 -12 -25
-17 -62 -17 -131 0 -125 16 -168 74 -196 42 -20 45 -20 2493 -20 l2450 0 34
23 c54 36 69 77 69 190 0 110 -14 154 -58 184 -15 9 -30 18 -34 19 -5 1 -10 3
-13 4 -3 1 -9 3 -14 4 -5 0 -13 5 -17 9 -4 4 -8 1039 -8 2300 l-1 2292 -22 31
c-37 52 -79 65 -196 63 -74 -1 -110 -6 -130 -18 -33 -19 -66 -61 -72 -92 -3
-12 -7 -24 -10 -27 -3 -3 -897 -6 -1986 -6 -1877 -1 -1981 0 -1990 17 -5 9 -7
17 -5 17 13 0 -32 65 -58 84 -39 30 -234 36 -286 9z m4326 -556 c5 -5 7 -237
5 -392 l-1 -31 -102 2 c-57 1 -105 2 -108 3 -3 0 -7 13 -8 28 -4 51 -47 116
-95 147 -36 22 -58 28 -104 29 -32 0 -71 -5 -88 -12 -16 -7 -31 -12 -32 -12
-2 0 -13 -10 -26 -22 -38 -36 -69 -87 -63 -102 3 -8 1 -15 -5 -15 -5 0 -9 -6
-8 -12 1 -7 1 -18 0 -23 -1 -7 -169 -10 -493 -9 -271 1 -496 2 -499 3 -3 0 -6
7 -6 14 -7 175 -239 257 -363 128 -31 -32 -50 -66 -50 -86 0 -29 -17 -15 -34
28 -34 90 -146 141 -256 115 -35 -8 -99 -60 -116 -95 -19 -40 -20 -43 -24 -70
-1 -15 -3 -15 -7 -3 -42 115 -102 166 -202 174 -107 8 -208 -73 -220 -176 -1
-9 -4 -9 -10 2 -6 8 -8 18 -5 22 8 12 -22 61 -58 95 -57 54 -155 73 -229 44
-39 -15 -85 -63 -113 -116 -15 -29 -26 -43 -27 -32 -2 26 -4 30 -17 54 -66
118 -241 143 -335 49 -29 -29 -56 -85 -59 -123 -2 -13 -5 -24 -8 -24 -3 -1
-51 -2 -107 -3 -86 -1 -103 1 -104 14 -5 113 1 404 9 409 13 8 3961 6 3968 -2z
m-3759 -739 c6 -78 85 -162 167 -175 17 -3 38 -6 46 -8 8 -1 21 2 28 8 6 5 12
7 12 3 0 -3 17 1 37 9 47 20 107 83 119 126 l10 33 27 -55 c15 -31 38 -62 52
-69 14 -7 25 -17 25 -21 0 -6 14 -11 70 -26 31 -8 88 -3 121 11 55 23 122 94
124 130 0 16 25 19 25 3 0 -37 67 -121 98 -122 4 -1 17 -6 29 -13 30 -17 90
-17 142 -1 63 19 112 71 136 143 5 16 10 11 29 -30 32 -68 85 -111 150 -121
17 -3 38 -6 46 -8 8 -1 21 2 28 8 6 5 12 7 12 3 0 -3 17 1 37 9 47 20 106 83
119 126 l10 34 21 -46 c11 -25 31 -56 44 -69 60 -57 179 -80 233 -44 15 9 26
14 26 11 0 -4 18 12 40 34 27 27 45 58 56 95 l15 54 494 0 493 0 12 -50 c12
-49 83 -146 99 -135 5 2 16 -2 27 -9 10 -8 24 -12 31 -9 7 3 13 1 13 -4 0 -16
108 4 145 27 20 12 47 37 61 55 22 29 29 48 38 105 2 12 24 16 109 18 l107 3
1 -28 c3 -154 0 -676 -4 -680 -3 -3 -49 -6 -102 -6 -102 0 -114 5 -115 48 -1
55 -88 147 -152 161 -121 27 -240 -52 -262 -172 -3 -15 -7 -29 -10 -31 -7 -7
-976 -6 -983 1 -4 4 -8 17 -10 29 -7 44 -49 110 -91 140 -37 27 -53 32 -111
33 -45 2 -78 -3 -97 -12 -58 -30 -109 -93 -119 -146 -3 -12 -7 -23 -11 -27 -4
-3 -5 1 -2 9 3 9 -2 32 -11 51 -67 138 -225 172 -339 74 -29 -24 -62 -86 -63
-117 -1 -17 -4 -13 -13 14 -6 21 -19 47 -29 58 -9 11 -17 24 -17 29 0 6 -9 13
-20 16 -11 3 -20 14 -20 22 0 9 -3 13 -7 10 -3 -4 -12 -2 -19 4 -17 14 -127
24 -151 14 -10 -4 -24 -9 -30 -11 -35 -7 -91 -68 -113 -122 l-13 -34 -13 23
c-7 13 -11 26 -9 30 5 7 -57 73 -88 94 -50 32 -141 34 -199 5 -53 -28 -104
-91 -113 -142 -3 -12 -7 -23 -11 -27 -4 -3 -5 1 -2 9 14 40 -62 140 -125 165
-129 52 -265 -26 -293 -169 -2 -10 -6 -21 -8 -24 -7 -6 -196 -6 -203 1 -4 5
-8 604 -4 690 1 16 11 17 108 15 l108 -3 2 -27z m-1 -981 c3 -10 3 -21 0 -24
-8 -8 42 -95 67 -116 46 -38 107 -59 157 -54 85 9 140 48 180 127 l23 45 8
-28 c12 -46 57 -96 108 -121 54 -28 137 -29 188 -3 32 17 84 66 83 80 -1 4 6
15 15 23 8 9 15 25 15 37 0 14 11 1 30 -38 52 -106 161 -149 271 -107 57 22
100 74 132 162 4 10 6 8 6 -7 1 -29 37 -93 64 -116 45 -38 107 -59 157 -54 85
9 140 48 180 127 l23 45 8 -28 c22 -80 131 -154 211 -144 61 8 69 10 103 31
40 24 81 83 95 137 l11 44 495 0 c464 0 494 -1 495 -17 2 -31 4 -36 12 -44 4
-4 7 -15 7 -24 0 -10 15 -33 32 -52 126 -135 339 -76 372 102 l6 35 105 0 105
0 1 -35 c0 -49 0 -597 0 -642 l-1 -37 -106 2 -107 2 -3 33 c-8 73 -71 146
-144 168 -121 36 -254 -44 -275 -166 l-6 -38 -495 0 -494 0 -6 27 c-13 60 -29
88 -72 129 -25 23 -52 43 -59 43 -16 2 -32 6 -35 9 -7 6 -84 6 -93 -1 -5 -4
-14 -8 -20 -9 -26 -6 -57 -21 -74 -37 -24 -23 -55 -72 -57 -91 -2 -8 -7 -19
-13 -25 -8 -8 -11 -5 -11 10 0 23 -42 88 -74 116 -11 10 -33 21 -48 24 -16 3
-28 9 -28 12 0 7 -82 6 -116 -2 -62 -15 -143 -102 -145 -157 0 -15 -3 -19 -6
-10 -19 52 -40 88 -65 113 -31 29 -88 62 -88 51 0 -4 -6 -2 -12 4 -20 15 -88
8 -140 -16 -51 -22 -102 -83 -114 -134 l-6 -32 -15 44 c-8 24 -21 50 -29 57
-8 8 -14 19 -14 24 0 5 -7 9 -15 9 -8 0 -15 4 -15 8 0 15 -76 44 -123 46 -65
4 -139 -34 -175 -87 -15 -23 -28 -49 -30 -57 -6 -26 -22 -36 -22 -13 0 23 -42
88 -74 116 -11 10 -33 21 -48 24 -16 3 -28 9 -28 12 0 7 -82 6 -116 -2 -66
-16 -130 -86 -146 -161 l-9 -44 -105 -1 -104 -2 -1 53 c-4 389 -2 659 4 661 4
1 53 2 108 2 87 0 100 -2 105 -18z m-42 -982 c35 0 39 -3 42 -26 7 -68 71
-148 135 -168 85 -27 165 -10 228 50 27 26 62 99 54 113 -3 5 -1 6 5 2 7 -4
12 -15 12 -25 0 -23 49 -97 78 -117 28 -19 102 -42 127 -38 101 14 156 52 189
127 l23 51 13 -38 c18 -56 70 -106 130 -126 60 -20 108 -17 165 12 49 25 72
50 98 108 16 34 22 40 25 26 6 -27 45 -87 73 -112 28 -25 81 -44 135 -47 43
-3 113 26 153 64 27 26 62 99 54 113 -3 5 -1 6 5 2 7 -4 12 -15 12 -25 0 -23
49 -97 79 -117 31 -22 109 -42 146 -37 85 12 164 80 181 156 6 31 34 81 34 62
0 -6 47 -10 115 -10 70 0 115 4 115 10 0 7 3 7 8 0 4 -5 39 -10 77 -10 39 0
73 5 77 10 5 7 8 7 8 0 0 -6 45 -10 115 -10 70 0 115 4 115 10 0 7 3 7 8 0 4
-6 55 -10 117 -10 62 0 113 4 117 10 5 7 8 6 8 -1 0 -6 18 -9 45 -8 25 1 45
-1 46 -4 1 -13 8 -46 14 -70 8 -31 83 -112 104 -112 9 0 22 -5 28 -11 18 -18
119 -14 148 5 14 9 25 14 25 11 0 -3 15 9 34 26 43 39 67 88 75 150 1 3 48 6
106 6 91 1 105 -2 106 -16 5 -175 -1 -685 -9 -690 -8 -5 -177 -6 -202 -2 -3 1
-6 14 -7 31 -1 16 -9 43 -18 60 -41 79 -93 112 -182 115 -69 3 -101 -9 -154
-54 -28 -24 -75 -109 -65 -118 3 -3 1 -13 -3 -22 -8 -14 -56 -16 -488 -14
-263 0 -486 1 -495 2 -13 1 -18 9 -18 31 0 33 -32 95 -64 124 -69 62 -174 72
-250 25 -51 -32 -96 -92 -96 -129 -1 -21 -4 -18 -22 20 -26 54 -89 118 -129
129 -39 12 -95 12 -136 0 -57 -16 -130 -86 -139 -135 -7 -36 -24 -37 -24 -2 0
32 -58 100 -105 125 -58 30 -158 26 -207 -8 -50 -35 -77 -69 -93 -119 -8 -27
-14 -36 -14 -23 -1 29 -37 93 -64 116 -46 39 -106 59 -161 54 -28 -2 -63 -10
-76 -17 -42 -21 -89 -72 -101 -107 -6 -18 -14 -33 -18 -33 -4 0 -15 18 -25 40
-10 22 -34 52 -54 68 -20 15 -39 29 -42 32 -18 18 -106 24 -155 10 -74 -21
-143 -100 -148 -170 -1 -21 -8 -30 -19 -31 -70 -4 -182 -3 -190 2 -8 5 -15
532 -9 686 1 21 5 22 61 20 37 -2 60 1 60 8 0 6 3 7 8 0 4 -5 25 -10 46 -10z
m11 -994 c26 -1 31 -5 33 -28 7 -85 95 -171 182 -178 23 -2 44 -6 47 -9 3 -3
15 0 27 6 11 7 23 13 26 14 42 10 103 68 124 117 8 20 11 39 8 43 -4 4 -2 4 5
0 6 -3 14 -19 18 -34 13 -63 97 -131 165 -136 14 -1 31 -6 38 -10 7 -4 12 -2
12 4 0 6 4 8 10 5 12 -8 88 26 115 51 28 26 50 63 59 99 l8 30 21 -50 c38 -87
90 -124 182 -129 17 0 33 -5 37 -11 5 -6 8 -6 8 1 0 6 6 11 13 12 71 6 131 67
170 172 3 9 6 6 6 -9 1 -27 40 -101 53 -101 5 0 6 -4 3 -10 -3 -5 -1 -10 5
-10 7 0 24 -9 40 -20 15 -11 30 -17 34 -13 3 3 6 2 6 -4 0 -6 11 -9 25 -8 14
2 25 -1 25 -6 0 -6 5 -7 12 -3 7 4 28 9 47 11 58 6 130 66 152 128 16 42 25
44 34 7 13 -61 93 -128 163 -136 12 -2 25 -6 28 -9 4 -4 12 -3 18 0 6 4 17 8
26 9 35 6 48 11 76 29 56 36 96 103 97 163 0 6 12 12 26 12 41 1 945 1 957 1
5 -1 16 -23 23 -51 9 -35 25 -62 57 -95 25 -25 50 -45 57 -45 7 0 24 -6 39
-14 15 -8 29 -12 32 -8 3 3 23 6 43 7 53 4 82 17 125 58 32 32 56 78 62 122 1
8 4 17 7 19 5 6 84 9 164 7 l50 -1 -2 -206 c0 -113 -3 -208 -6 -211 -4 -3
-3739 -7 -3957 -3 l-25 0 1 207 c2 238 -6 220 102 216 31 -1 71 -2 87 -2z"/>
</g>
</svg>
